<?xml version="1.0" encoding="UTF-8"?>
<!DOCTYPE svg PUBLIC "-//W3C//DTD SVG 1.1//EN" "http://www.w3.org/Graphics/SVG/1.1/DTD/svg11.dtd">
<!-- Creator: CorelDRAW -->
<svg xmlns="http://www.w3.org/2000/svg" xml:space="preserve" width="135.45mm" height="135.45mm" version="1.1" style="shape-rendering:geometricPrecision; text-rendering:geometricPrecision; image-rendering:optimizeQuality; fill-rule:evenodd; clip-rule:evenodd"
viewBox="0 0 3989.31 3989.31"
 xmlns:xlink="http://www.w3.org/1999/xlink"
 xmlns:xodm="http://www.corel.com/coreldraw/odm/2003">
 <defs>
  <style type="text/css">
   <![CDATA[
    .fil0 {fill:#620085}
   ]]>
  </style>
 </defs>
 <g id="Camada_x0020_1">
  <metadata id="CorelCorpID_0Corel-Layer"/>
  <g id="_2795042469552">
   <g id="_1413833014208">
    <path class="fil0" d="M1955.72 2243.99c182.19,0 352.88,-29.72 486.31,-121.65 40.55,-27.92 36.64,-30.16 85.11,-5.89 79.95,40.03 178.38,97.19 244.31,153.28 199.72,169.91 349.98,375.56 421.59,638.07 17.08,62.64 36.86,153.37 40.47,224.5 6.53,128.91 12.71,67.88 -83.63,165.58 -164.78,167.13 -472.98,313.16 -684.94,374.71 -301,87.41 -630.66,87.72 -934.47,1.74 -234.58,-66.39 -424.12,-162.87 -614.39,-312.79l-104.55 -90.24c-71.05,-56.62 -58.66,-41.62 -55.83,-131.32 7.11,-225.3 127.35,-497.95 260.46,-666.86 99.93,-126.8 215.7,-223.69 354.75,-307.53 101.06,-60.93 124.8,-79.43 171.79,-46.61 85.03,59.4 267.74,124.97 413.03,124.97l0 0.01 0 0.02zm-23.95 -2243.99l137.59 0c141.3,4.78 282.21,24.25 419.42,59.1 337.73,85.79 672.18,277.24 918.19,523.25 25.14,25.14 35.17,42.59 58.21,66.46 66.81,69.19 105.19,119.81 161.23,197.17 222.23,306.75 347.33,684.72 362.9,1070.62l0 164.28c-5.56,137.03 -25.06,273.92 -59.1,407.88 -69.19,272.27 -162.29,439.04 -307.11,659.06 -16.73,25.42 -32.59,47.42 -52.74,71.93l-109.04 124.71c-21.56,23.28 -30.18,38.31 -54.37,62.5 -137.45,137.45 -386.55,319.9 -568.56,397.61 -118.99,50.81 -218.17,92.77 -355.89,127.19 -222.18,55.54 -327.47,57.51 -547.41,57.56l-10.56 0c-274.48,0 -594.73,-95.98 -779.27,-186.88 -202.93,-99.96 -271.88,-154.06 -439.54,-285.08 -71.42,-55.82 -125.94,-119.23 -181.58,-176.84l-84.6 -94.61c-10.64,-13.54 -17.57,-24.16 -26.5,-35.84 -10.69,-13.97 -16.58,-19.07 -28,-34.32 -60.37,-80.53 -161.31,-246.07 -200.28,-337.33 -149.41,-349.98 -184.75,-525.81 -184.75,-913.86 0,-396.38 161.56,-793.06 366.15,-1083.09 17.88,-25.35 32.14,-46.76 52.78,-71.88 122.61,-149.16 207.42,-236.35 359.15,-357.69 318.85,-254.99 733.04,-397.84 1153.66,-411.88l0.01 -0.01 0.01 0zm-560.42 1371.32c0,-391.43 380.61,-697.5 761.72,-605.89 192.74,46.33 344.21,172.43 427.9,351.26 162.44,347.07 -42,768.16 -427.85,860.57 -91.51,21.91 -185.36,21.91 -276.89,0 -276.24,-66.16 -484.89,-319.18 -484.89,-605.94l0.01 0zm-249.34 -38.96c0,186.73 23.43,320.58 116.41,475.75 17.59,29.36 55.61,77.79 62.79,108.62 -64.99,17.35 -269.26,172.15 -325.46,227.75 -150.19,148.6 -229.97,252.6 -329.04,450.12 -52.35,104.35 -87.2,207.7 -116.87,335.04 -51.59,-37.8 -170.21,-320.5 -195.78,-404.17 -74.86,-245.05 -102.59,-474.7 -70.58,-727.06 48.92,-385.7 166.23,-627.04 390.96,-918.04l160.41 -166.84c24.07,-18.61 34.62,-33.4 57.81,-51.26 250.07,-192.74 406.29,-285.07 726.13,-364.7 94.26,-23.46 286.45,-47.06 387.96,-48.73 47.44,-0.78 60.57,7.46 101.18,8.52 394.04,10.24 720.74,165.18 1021,397.08 23.62,18.25 34.05,33.28 56.77,52.31l109.08 109.08c19.1,22.8 33.97,33.08 52.27,56.83l95.12 123.05c267.06,399.2 361.63,798.13 293.24,1278.25 -11.61,81.49 -35.43,167.97 -58.32,245.56 -25.14,85.29 -144.98,371.6 -197.6,410.15 -61.06,-262.11 -196.38,-537.03 -383.71,-722.69 -137.4,-136.16 -210.14,-196.3 -387.65,-290.22 8.11,-34.85 78.26,-118.84 119.22,-223.61 234.71,-600.4 -236.96,-1194.47 -773.71,-1194.47 -270.09,0 -472.94,71.67 -656.45,255.18 -143.17,143.17 -255.18,358.68 -255.18,578.53l-0.01 -0.03 0.01 -0z"/>
   </g>
  </g>
 </g>
</svg>
